<svg version="1.1" id="Layer_1" xmlns="http://www.w3.org/2000/svg" xmlns:xlink="http://www.w3.org/1999/xlink" x="0px" y="0px"
	 width="100%" viewBox="0 0 225 225" enable-background="new 0 0 225 225" xml:space="preserve">
<path fill="#000000" opacity="1.000000" stroke="none" 
	d="
M110.000000,226.000000 
	C73.333336,226.000000 37.166672,226.000000 1.000005,226.000000 
	C1.000003,151.000000 1.000003,76.000015 1.000002,1.000015 
	C75.999992,1.000010 150.999985,1.000010 225.999969,1.000005 
	C225.999985,75.999985 225.999985,150.999969 226.000000,225.999969 
	C187.500000,226.000000 149.000000,226.000000 110.000000,226.000000 
M177.832062,163.509186 
	C177.886017,146.375153 177.950500,129.241119 177.952652,112.107071 
	C177.952728,111.469238 177.345657,110.831322 176.176453,110.083366 
	C170.984085,111.295036 165.844528,112.985336 160.582535,113.566154 
	C156.411758,114.026527 155.899536,116.006737 156.010071,119.403351 
	C156.182526,124.703896 156.054916,130.014191 156.054825,135.320358 
	C156.054657,144.733765 156.054764,154.147171 156.054764,163.809113 
	C163.419724,163.809113 170.223007,163.809113 177.832062,163.509186 
M111.844643,66.621361 
	C110.927879,63.970955 109.327133,62.678169 106.271881,62.928833 
	C102.632477,63.227421 98.938194,63.181969 95.288948,62.950474 
	C91.091545,62.684216 87.894279,63.474640 86.838448,68.226097 
	C86.334160,70.495461 85.434845,72.692314 84.567421,74.863266 
	C78.522919,89.991302 72.398834,105.087669 66.396454,120.232315 
	C64.787354,124.292252 63.511650,128.484329 62.158943,132.395859 
	C68.634438,127.965828 74.885658,123.726395 81.095360,119.426979 
	C84.763214,116.887459 89.729759,115.015656 91.698158,111.494156 
	C95.227943,105.179359 96.937119,97.846886 99.810387,89.812149 
	C101.419952,94.912628 102.657837,98.925858 103.955200,102.919762 
	C105.144562,106.581223 107.213783,107.997856 111.077660,106.078583 
	C113.681877,104.785011 116.495361,103.766701 119.327515,103.107971 
	C125.509819,101.670013 126.028252,101.063118 123.757149,95.519661 
	C119.906204,86.119995 115.951973,76.762650 111.844643,66.621361 
M166.382019,102.244781 
	C156.972031,103.519684 147.440964,104.222786 138.176361,106.184364 
	C116.576073,110.757767 95.821190,117.581535 77.567253,130.694214 
	C66.586952,138.581909 56.789207,147.273193 51.420612,160.115372 
	C50.100838,163.272385 50.249008,165.006943 53.985023,164.869934 
	C59.777409,164.657501 65.571213,164.306610 71.338226,163.745224 
	C72.360130,163.645752 73.603050,162.423355 74.153107,161.401474 
	C78.979530,152.435028 86.297668,145.787964 94.223656,139.748825 
	C115.426537,123.593460 139.126999,112.427628 164.560501,104.733864 
	C165.533722,104.439476 166.219803,103.195976 166.382019,102.244781 
M125.068733,160.341278 
	C126.142616,164.940414 129.438538,165.380005 133.334534,164.819916 
	C135.590668,164.495560 137.862167,164.183029 140.135544,164.096588 
	C143.353577,163.974213 146.579758,164.065552 149.586151,164.065552 
	C149.811386,162.872528 149.912064,162.683746 149.863159,162.549469 
	C145.479279,150.510605 141.168549,138.443024 136.526978,126.504097 
	C136.159653,125.559250 133.120468,124.674240 131.956390,125.190277 
	C127.319824,127.245644 122.808090,129.671097 118.542992,132.414780 
	C117.455254,133.114502 116.651619,135.740005 117.068901,137.050323 
	C119.478523,144.616837 122.293320,152.054306 125.068733,160.341278 
M162.289612,76.048248 
	C156.849716,79.888687 154.557968,85.319290 156.223267,90.423271 
	C158.111115,96.209366 160.410065,97.194176 168.627136,96.996048 
	C175.726456,96.824875 177.305389,92.228622 177.715164,86.524216 
	C178.096466,81.216026 173.614014,76.358200 168.580460,75.960762 
	C166.764053,75.817329 164.931213,75.881638 162.289612,76.048248 
z"/>
<path fill="#0D72B8" opacity="1.000000" stroke="none" 
	d="
M111.942902,67.004440 
	C115.951973,76.762650 119.906204,86.119995 123.757149,95.519661 
	C126.028252,101.063118 125.509819,101.670013 119.327515,103.107971 
	C116.495361,103.766701 113.681877,104.785011 111.077660,106.078583 
	C107.213783,107.997856 105.144562,106.581223 103.955200,102.919762 
	C102.657837,98.925858 101.419952,94.912628 99.810387,89.812149 
	C96.937119,97.846886 95.227943,105.179359 91.698158,111.494156 
	C89.729759,115.015656 84.763214,116.887459 81.095360,119.426979 
	C74.885658,123.726395 68.634438,127.965828 62.158943,132.395859 
	C63.511650,128.484329 64.787354,124.292252 66.396454,120.232315 
	C72.398834,105.087669 78.522919,89.991302 84.567421,74.863266 
	C85.434845,72.692314 86.334160,70.495461 86.838448,68.226097 
	C87.894279,63.474640 91.091545,62.684216 95.288948,62.950474 
	C98.938194,63.181969 102.632477,63.227421 106.271881,62.928833 
	C109.327133,62.678169 110.927879,63.970955 111.942902,67.004440 
z"/>
<path fill="#4D4D4D" opacity="1.000000" stroke="none" 
	d="
M166.710846,102.319763 
	C166.219803,103.195976 165.533722,104.439476 164.560501,104.733864 
	C139.126999,112.427628 115.426537,123.593460 94.223656,139.748825 
	C86.297668,145.787964 78.979530,152.435028 74.153107,161.401474 
	C73.603050,162.423355 72.360130,163.645752 71.338226,163.745224 
	C65.571213,164.306610 59.777409,164.657501 53.985023,164.869934 
	C50.249008,165.006943 50.100838,163.272385 51.420612,160.115372 
	C56.789207,147.273193 66.586952,138.581909 77.567253,130.694214 
	C95.821190,117.581535 116.576073,110.757767 138.176361,106.184364 
	C147.440964,104.222786 156.972031,103.519684 166.710846,102.319763 
z"/>
<path fill="#0971B7" opacity="1.000000" stroke="none" 
	d="
M177.026276,163.809113 
	C170.223007,163.809113 163.419724,163.809113 156.054764,163.809113 
	C156.054764,154.147171 156.054657,144.733765 156.054825,135.320358 
	C156.054916,130.014191 156.182526,124.703896 156.010071,119.403351 
	C155.899536,116.006737 156.411758,114.026527 160.582535,113.566154 
	C165.844528,112.985336 170.984085,111.295036 176.606247,110.594521 
	C177.032776,128.673492 177.029526,146.241302 177.026276,163.809113 
z"/>
<path fill="#0C72B7" opacity="1.000000" stroke="none" 
	d="
M125.019806,159.938385 
	C122.293320,152.054306 119.478523,144.616837 117.068901,137.050323 
	C116.651619,135.740005 117.455254,133.114502 118.542992,132.414780 
	C122.808090,129.671097 127.319824,127.245644 131.956390,125.190277 
	C133.120468,124.674240 136.159653,125.559250 136.526978,126.504097 
	C141.168549,138.443024 145.479279,150.510605 149.863159,162.549469 
	C149.912064,162.683746 149.811386,162.872528 149.586151,164.065552 
	C146.579758,164.065552 143.353577,163.974213 140.135544,164.096588 
	C137.862167,164.183029 135.590668,164.495560 133.334534,164.819916 
	C129.438538,165.380005 126.142616,164.940414 125.019806,159.938385 
z"/>
<path fill="#4F4F4F" opacity="1.000000" stroke="none" 
	d="
M162.697754,75.949692 
	C164.931213,75.881638 166.764053,75.817329 168.580460,75.960762 
	C173.614014,76.358200 178.096466,81.216026 177.715164,86.524216 
	C177.305389,92.228622 175.726456,96.824875 168.627136,96.996048 
	C160.410065,97.194176 158.111115,96.209366 156.223267,90.423271 
	C154.557968,85.319290 156.849716,79.888687 162.697754,75.949692 
z"/>
<path fill="#84AED0" opacity="1.000000" stroke="none" 
	d="
M177.429169,163.659149 
	C177.029526,146.241302 177.032776,128.673492 177.028793,110.649551 
	C177.345657,110.831322 177.952728,111.469238 177.952652,112.107071 
	C177.950500,129.241119 177.886017,146.375153 177.429169,163.659149 
z"/>
</svg>